<?xml version="1.0" encoding="UTF-8"?>
<svg id="Camada_2" data-name="Camada 2" xmlns="http://www.w3.org/2000/svg" viewBox="0 0 234.43 45.89">
  <defs>
    <style>
      .cls-1 {
        fill: #f0f0ec;
        stroke-width: 0px;
      }
    </style>
  </defs>
  <g id="Camada_1-2" data-name="Camada 1">
    <g>
      <path class="cls-1" d="M94,28.24c-.79,1.22-1.33,2.44-1.33,3.5,0,.85.48,1.43,1.7,1.43,3.87,0,8.11-5.72,8.11-5.72h.37s-4.4,6.04-8.64,6.04c-1.7,0-2.81-1.27-2.81-3.02,0-4.4,6.31-7.68,9.01-7.68.74,0,1.11.21,1.11.69,0,1.7-4.77,4.66-7.52,4.77ZM94.16,27.98c2.49-.11,6.84-3.07,6.84-4.56,0-.27-.16-.37-.42-.37-1.75,0-4.66,2.38-6.41,4.93Z"/>
      <g>
        <path class="cls-1" d="M49.76.3c.16,0,.16.32,0,.32-6.52,0-28.3,31.9-25.22,31.9C27.98,32.52,48.22.3,61.05.3c.21,0,.21.32,0,.32-6.94,0-31.48,31.9-25.01,31.9,2.54,0,7.1-6.25,7.1-6.25h.37s-4.77,6.57-7.47,6.57c-8.85,0,9.43-24.54,20.56-31h-.27c-12.51,5.88-28.51,31-31.74,31-6.25,0,11.02-25.17,21.36-31.21h-.16C33.97,7.08,19.98,33.68,5.3,33.68c-3.97,0-5.3-1.7-5.3-3.29,0-1.48,1.33-2.76,2.54-2.76.64,0,1.17.42,1.17.95,0,1.54-2.54,1.8-2.54,3.07,0,.9,1.43,1.7,4.13,1.7C21.46,33.37,37.04.3,49.76.3Z"/>
        <path class="cls-1" d="M51.09,21.6c.95,0,1.27.48,1.27,1.17,0,.48-.21,1.11-.21,1.11h.11c.95-1.22,1.7-2.12,1.7-2.12h.05s.32.32.95.32c.9,0,1.75-.74,1.75-.74.05-.05.16-.05.11,0,0,0-7.15,7.31-7.15,9.65,0,.64.32,1.01,1.01,1.01,2.33,0,6.52-5.72,6.52-5.72h.37s-4.4,6.04-6.94,6.04c-.9,0-1.54-.64-1.54-1.8,0-.74.26-1.59.64-2.49h-.11c-1.85,2.28-4.29,4.29-5.83,4.29-1.38,0-2.01-1.27-2.01-2.6,0-3.92,6.04-8.11,9.33-8.11ZM43.83,31.99c2.54,0,8.21-6.52,8.21-9.22,0-.53-.21-.85-.79-.85-2.65,0-8.37,6.52-8.37,9.11,0,.58.32.95.95.95Z"/>
        <path class="cls-1" d="M63.81,26.26s-4.35,6.04-7.05,6.04c-.95,0-1.54-.53-1.54-1.75,0-3.02,5.35-8.8,5.35-8.8h.11s.32.32.95.32c.85,0,1.8-.74,1.8-.74.16-.05.11,0,.11,0,0,0-7.74,7.47-7.74,9.7,0,.58.26.95,1.06.95,2.44,0,6.57-5.72,6.57-5.72h.37ZM62.27,17.89c-.21,0-.21-.27-.21-.27,2.01,0,3.55-3.39,4.61-3.39.37,0,.53.21.53.53,0,1.11-3.29,3.13-4.93,3.13Z"/>
        <path class="cls-1" d="M67.84,20.33c-.05-.32-.11-.64-.11-1.06,0-2.38,1.8-3.13,1.8-1.85,0,.74-.42,1.64-1.33,2.91.42,1.11,1.43,2.01,3.6,2.01.11,0,.05.05,0,.11-.16.21-6.84,6.47-6.84,8.48,0,.69.26,1.06.95,1.06,2.54,0,7.05-5.72,7.05-5.72h.37s-4.82,6.04-7.42,6.04c-.95,0-1.43-.64-1.43-1.7,0-2.97,4.35-7.47,4.61-7.79.42-.48-.64-.95-1.11-2.17-1.01,1.48-2.49,3.34-4.19,5.62h-.37c1.85-2.49,3.39-4.45,4.4-5.94Z"/>
        <path class="cls-1" d="M80.93,21.6c.95,0,1.27.48,1.27,1.17,0,.48-.21,1.11-.21,1.11h.11c.95-1.22,1.7-2.12,1.7-2.12h.05s.32.32.95.32c.9,0,1.75-.74,1.75-.74.05-.05.16-.05.11,0,0,0-7.15,7.31-7.15,9.65,0,.64.32,1.01,1.01,1.01,2.33,0,6.52-5.72,6.52-5.72h.37s-4.4,6.04-6.94,6.04c-.9,0-1.54-.64-1.54-1.8,0-.74.26-1.59.64-2.49h-.11c-1.85,2.28-4.29,4.29-5.83,4.29-1.38,0-2.01-1.27-2.01-2.6,0-3.92,6.04-8.11,9.33-8.11ZM73.67,31.99c2.54,0,8.21-6.52,8.21-9.22,0-.53-.21-.85-.79-.85-2.65,0-8.37,6.52-8.37,9.11,0,.58.32.95.95.95Z"/>
      </g>
      <g>
        <path class="cls-1" d="M130.02,40.49c-1.01,2.86-3.71,5.41-8,5.41-4.77,0-9.01-3.02-9.01-9.01,0-1.43.21-2.81.58-4.08-3.92,0-5.25-1.75-5.25-3.29s1.33-2.76,2.54-2.76c.64,0,1.11.37,1.11.95,0,1.48-2.54,1.8-2.54,3.07,0,.9,1.48,1.7,4.19,1.7h.05c1.06-3.34,3.34-6.25,6.52-8.69-1.96-.79-3.5-2.6-3.5-5.51,0-13.83,29.99-16.91,34.82-16.91.16,0,.16.32,0,.32-6.94,0-11.29,7.9-16.53,15.69.95-.21,1.96-.42,2.97-.58,1.64-.27,3.29-.58,4.88-.9,6.36-8.11,16.11-15.9,21.09-15.9,1.7,0,2.49,1.01,2.49,2.44,0,5.14-9.33,10.23-20.99,13.14-4.19,5.41-7.31,10.86-7.31,13.94,0,1.64.79,2.49,1.86,2.81.9-5.19,5.51-11.39,9.91-11.39,1.8,0,2.6.95,2.6,2.49,0,3.13-5.67,9.38-11.5,9.38h-.21c-.16.69-.21,1.38-.21,2.07,0,2.44,1.43,4.13,3.92,4.13,2.17,0,4.19-.9,5.88-2.28.21-.16.37.11.21.21-1.8,1.43-3.87,2.38-6.09,2.38-2.7,0-4.66-1.91-4.66-5.3,0-.48.05-.85.11-1.33-1.59-.37-3.13-1.64-3.13-4.29,0-3.29,2.33-7.74,5.72-12.14-1.48.32-3.02.64-4.5.85l-3.29.64c-5.09,7.52-11.02,14.89-20.83,15.05-.37,1.27-.58,2.65-.58,4.08,0,5.83,4.08,8.69,8.69,8.69,4.08,0,6.68-2.44,7.68-5.14l.32.05ZM132.09,18.44c-4.4,1.22-8.21,2.97-11.23,5.19.37.16,1.32.32,2.01.32,1.11,0,2.12-.21,3.07-.69.16-.11.32.11.16.21-.9.58-2.12.79-3.23.79-.79,0-1.59-.11-2.33-.37-3.18,2.38-5.41,5.35-6.52,8.58,7.15-.21,12.72-6.94,18.07-14.04ZM148.46,1.91c-9.01.79-31.42,4.61-31.42,16.38,0,2.86,1.54,4.5,3.5,5.25,3.18-2.38,7.21-4.24,11.82-5.51,5.19-6.94,10.17-14.2,16.11-16.11ZM140.88,32.48h.37c5.09,0,10.92-5.99,10.92-9.06,0-1.38-.69-2.12-2.07-2.12-3.55,0-8,6.04-9.22,11.18ZM145.81,15.16c11.34-2.92,20.3-7.9,20.3-12.72,0-1.32-.69-2.12-2.17-2.12-4.13,0-12.14,7.26-18.12,14.84Z"/>
        <path class="cls-1" d="M156.15,26.81c-.79,1.22-1.33,2.44-1.33,3.5,0,.85.48,1.43,1.7,1.43,3.87,0,8.11-5.72,8.11-5.72h.37s-4.4,6.04-8.64,6.04c-1.7,0-2.81-1.27-2.81-3.02,0-4.4,6.31-7.68,9.01-7.68.74,0,1.11.21,1.11.69,0,1.7-4.77,4.66-7.52,4.77ZM156.31,26.55c2.49-.11,6.84-3.07,6.84-4.56,0-.27-.16-.37-.42-.37-1.75,0-4.66,2.38-6.41,4.93Z"/>
        <path class="cls-1" d="M164.63,26.02s3.5-4.66,5.46-4.66c.79,0,1.27.64,1.27,1.48s-.37,1.91-.9,2.97h.11c1.85-2.12,4.24-4.45,6.04-4.45.95,0,1.7.53,1.7,1.59,0,3.5-5.72,5.67-5.72,7.9,0,.64.53.9,1.17.9,2.65,0,6.78-5.72,6.78-5.72h.37s-4.35,6.04-7.15,6.04c-1.17,0-2.12-.69-2.12-1.91,0-3.34,5.72-5.3,5.72-7.84,0-.37-.27-.64-.74-.64-3.02,0-7.53,6.57-10.55,10.33h-.11s-.32-.32-.95-.32c-.85,0-1.8.69-1.8.69-.11.11-.11,0-.11,0,.95-.95,7.63-7.79,7.63-9.96,0-.48-.16-.74-.69-.74-1.75,0-5.03,4.35-5.03,4.35h-.37Z"/>
        <path class="cls-1" d="M184.93,20.08c-.05-.32-.11-.64-.11-1.06,0-2.38,1.8-3.13,1.8-1.85,0,.74-.42,1.64-1.33,2.91.42,1.11,1.43,2.01,3.6,2.01.11,0,.05.05,0,.11-.16.21-6.84,6.47-6.84,8.48,0,.69.26,1.06.95,1.06,2.54,0,7.05-5.72,7.05-5.72h.37s-4.82,6.04-7.42,6.04c-.95,0-1.43-.64-1.43-1.7,0-2.97,4.35-7.47,4.61-7.79.42-.48-.64-.95-1.11-2.17-1.01,1.48-2.49,3.34-4.19,5.62h-.37c1.85-2.49,3.39-4.45,4.4-5.94Z"/>
        <path class="cls-1" d="M196.69,26.02s-4.35,6.04-7.05,6.04c-.95,0-1.54-.53-1.54-1.75,0-3.02,5.35-8.8,5.35-8.8h.11s.32.32.95.32c.85,0,1.8-.74,1.8-.74.16-.05.11,0,.11,0,0,0-7.74,7.47-7.74,9.7,0,.58.26.95,1.06.95,2.44,0,6.57-5.72,6.57-5.72h.37ZM199.03,16.11c0,.64-1.48,1.75-2.07,1.75-.64,0,.16-2.33,1.27-2.33.42,0,.79.27.79.58Z"/>
        <path class="cls-1" d="M215.61,22.95c0,3.18-5.88,5.3-5.88,7.74,0,.74.42,1.06,1.06,1.06,3.23,0,8.21-7.84,10.39-10.23h.11s.32.32.85.32c.9,0,1.91-.79,1.91-.79.11-.11.16,0,.11.05,0,0-7.74,7.47-7.74,9.65,0,.64.26,1.01.95,1.01,2.49,0,6.68-5.72,6.68-5.72h.37s-4.4,6.04-7.1,6.04c-.9,0-1.38-.64-1.38-1.75,0-.69.27-1.43.64-2.28h-.16c-1.48,1.64-3.82,4.03-5.62,4.03-1.22,0-1.91-.9-1.91-2.17,0-3.18,5.56-5.35,5.56-7.63,0-.37-.21-.58-.48-.58-2.75,0-20.03,21.2-21.67,21.2-2.12,0,2.33-5.09,8.64-13.04h-.11c-1.38,1.32-2.86,2.23-3.92,2.23-1.33,0-1.96-1.27-1.96-2.6,0-3.92,6.04-8.11,9.27-8.11.95,0,1.27.48,1.27,1.17,0,.53-.21,1.27-.64,2.07h.16l2.33-3.18h.05s.32.42.9.42c.69,0,1.33-.48,1.75-.79.05-.05.05,0,.05,0-7.05,8.32-17.49,20.35-16.64,20.35,1.43,0,17.7-20.03,20.61-20.03.9,0,1.54.64,1.54,1.59ZM197.01,31.74c2.54,0,8.16-6.52,8.16-9.22,0-.53-.16-.85-.79-.85-2.6,0-8.32,6.52-8.32,9.11,0,.58.21.95.95.95Z"/>
        <path class="cls-1" d="M225.58,26.81c-.79,1.22-1.33,2.44-1.33,3.5,0,.85.48,1.43,1.7,1.43,3.87,0,8.11-5.72,8.11-5.72h.37s-4.4,6.04-8.64,6.04c-1.7,0-2.81-1.27-2.81-3.02,0-4.4,6.31-7.68,9.01-7.68.74,0,1.11.21,1.11.69,0,1.7-4.77,4.66-7.52,4.77ZM225.74,26.55c2.49-.11,6.84-3.07,6.84-4.56,0-.27-.16-.37-.42-.37-1.75,0-4.66,2.38-6.41,4.93Z"/>
      </g>
    </g>
  </g>
</svg>